<svg width="256" height="256" xmlns="http://www.w3.org/2000/svg" style="vector-effect: non-scaling-stroke;" stroke="none" preserveAspectRatio="xMidYMid meet" version="1.0">
 <g stroke="none">
  <rect rx="50" id="svg_10" height="256" width="256" y="0" x="0" stroke-width="0" stroke="#000000" fill="#fff"/>
  <g stroke="none" id="svg_1" fill="#000000" transform="translate(0 256) scale(0.1 -0.1)">
   <path stroke="none" id="svg_2" d="m1049.01537,1804.88062c-53.09128,-35.39419 -93.93073,-107.54388 -93.93073,-166.08043c0,-104.82125 93.93073,-197.39067 200.1133,-197.39067c153.82859,0 245.03669,137.49281 183.77752,277.70825c-50.36865,112.98914 -187.86147,153.82859 -289.96009,85.76284z"/>
   <path stroke="none" id="svg_3" d="m1419.29304,1248.1028l-341.69006,-494.15733l656.15381,-4.08394c359.38715,-1.36131 657.51513,-1.36131 660.23776,1.36131c4.08394,5.44526 -598.97859,957.00442 -622.12094,980.14678c-5.44526,6.80657 -164.71911,-211.00382 -352.58058,-483.26681z"/>
   <path stroke="none" id="svg_4" d="m583.44565,1302.5554c-32.67156,-47.64602 -132.04755,-189.22278 -219.17171,-317.18639l-159.27385,-231.42354l219.17171,-4.08394c121.15703,-1.36131 314.46376,-1.36131 428.81421,0l209.64251,4.08394l-200.1133,315.82507c-110.26651,174.24832 -204.19725,315.82507 -209.64251,317.18639c-5.44526,0 -36.7555,-38.11682 -69.42706,-84.40153z"/>
  </g>
 </g>
</svg>